HIERARCHY
ROOT Hips
{
	OFFSET 0.00000 0.00000 0.00000
	CHANNELS 6 Xposition Yposition Zposition Zrotation Yrotation Xrotation 
	JOINT LHipJoint
	{
		OFFSET 0 0 0
		CHANNELS 3 Zrotation Yrotation Xrotation
		JOINT LeftHip
		{
			OFFSET 1.36337 -1.57426 1.11036
			CHANNELS 3 Zrotation Yrotation Xrotation
			JOINT LeftKnee
			{
				OFFSET 2.38468 -6.55187 0.00000
				CHANNELS 3 Zrotation Yrotation Xrotation
				JOINT LeftAnkle
				{
					OFFSET 2.37166 -6.51609 0.00000
					CHANNELS 3 Zrotation Yrotation Xrotation
					JOINT LeftToe
					{
						OFFSET 0.29078 -0.79891 2.01393
						CHANNELS 3 Zrotation Yrotation Xrotation
						End Site
						{
							OFFSET 0.00000 -0.00000 1.07924
						}
					}
				}
			}
		}
	}
	JOINT RHipJoint
	{
		OFFSET 0 0 0
		CHANNELS 3 Zrotation Yrotation Xrotation
		JOINT RightHip
		{
			OFFSET -1.36349 -1.57426 1.11036
			CHANNELS 3 Zrotation Yrotation Xrotation
			JOINT RightKnee
			{
				OFFSET -2.29562 -6.30717 0.00000
				CHANNELS 3 Zrotation Yrotation Xrotation
				JOINT RightAnkle
				{
					OFFSET -2.40985 -6.62100 0.00000
					CHANNELS 3 Zrotation Yrotation Xrotation
					JOINT RightToe
					{
						OFFSET -0.23197 -0.63733 1.92232
						CHANNELS 3 Zrotation Yrotation Xrotation
						End Site
						{
							OFFSET -0.00000 -0.00000 1.01562
						}
					}
				}
			}
		}
	}
	JOINT lowerback
	{
		OFFSET 0 0 0
		CHANNELS 3 Zrotation Yrotation Xrotation
		JOINT Chest
		{
			OFFSET -0.08565 2.03602 -0.24562
			CHANNELS 3 Zrotation Yrotation Xrotation
			JOINT Chest2
			{
				OFFSET -0.00036 2.05693 0.00216
				CHANNELS 3 Zrotation Yrotation Xrotation
				JOINT lowerneck
				{
					OFFSET 0 0 0
					CHANNELS 3 Zrotation Yrotation Xrotation
					JOINT Neck
					{
						OFFSET -0.03664 1.69515 0.31789
						CHANNELS 3 Zrotation Yrotation Xrotation
						JOINT Head
						{
							OFFSET 0.00932 1.70181 -0.46013
							CHANNELS 3 Zrotation Yrotation Xrotation
							End Site
							{
								OFFSET 0.01243 1.77620 -0.19377
							}
						}
					}
				}
				JOINT LeftCollar
				{
					OFFSET 0 0 0
					CHANNELS 3 Zrotation Yrotation Xrotation
					JOINT LeftShoulder
					{
						OFFSET 3.74344 0.81315 -0.36647
CHANNELS 3 Zrotation Xrotation Yrotation
						JOINT LeftElbow
						{
OFFSET 0 -4.971850 -0.000000
CHANNELS 3 Zrotation Xrotation Yrotation
							JOINT LeftWrist
							{
OFFSET 0 -3.358110 0.000000
CHANNELS 3 Zrotation Xrotation Yrotation
								JOINT lhand
								{
									OFFSET 0 0 0
CHANNELS 3 Zrotation Xrotation Yrotation
									JOINT LFingers
									{
OFFSET 0 -0.622780 0.000000
CHANNELS 3 Zrotation Xrotation Yrotation
										End Site
										{
OFFSET 0 -0.502100 0.000000
										}
									}
								}
								JOINT LThumb
								{
OFFSET 0 0.000000 0.000000
CHANNELS 3 Zrotation Xrotation Yrotation
									End Site
									{
OFFSET 0 -0.509760 0.509760
									}
								}
							}
						}
					}
				}
				JOINT RightCollar
				{
					OFFSET 0 0 0
					CHANNELS 3 Zrotation Yrotation Xrotation
					JOINT RightShoulder
					{
						OFFSET -3.75385 0.50666 -0.06525
CHANNELS 3 Zrotation Xrotation Yrotation
						JOINT RightElbow
						{
OFFSET 0 -4.964930 -0.000000
CHANNELS 3 Zrotation Xrotation Yrotation
							JOINT RightWrist
							{
OFFSET 0 -3.349290 0.000000
CHANNELS 3 Zrotation Xrotation Yrotation
								JOINT rhand
								{
									OFFSET 0 0 0
CHANNELS 3 Zrotation Xrotation Yrotation
									JOINT RFingers
									{
OFFSET 0 -0.638040 0.000000
CHANNELS 3 Zrotation Xrotation Yrotation
										End Site
										{
OFFSET 0 -0.514410 0.000000
										}
									}
								}
								JOINT RThumb
								{
OFFSET 0 0.000000 0.000000
CHANNELS 3 Zrotation Xrotation Yrotation
									End Site
									{
OFFSET 0 -0.522260 0.522260
									}
								}
							}
						}
					}
				}
			}
		}
	}
}
MOTION
Frames: 8
Frame Time: 0.008333333333333333
4.822740 14.656475 -4.400356 -183.280416 98.171542 -160.380269 0.000000 0.000000 0.000000 -6.213427 -10.662679 -70.401175 12.729903 18.682376 68.284567 0.644666 -7.720880 -14.488592 0.001266 0.210924 0.579400 0.000000 0.000000 0.000000 -0.772433 2.918607 -32.132624 -8.448170 -16.436882 54.157767 -2.066663 -13.832369 -35.016330 -2.013868 8.893930 -25.464675 -5.664663 1.145620 34.900995 -3.571241 -0.350106 6.177064 -0.741521 0.274197 -10.686889 0.460015 6.920459 -34.267558 -13.447801 12.848627 15.612969 -2.579405 4.090940 11.703078 0.000000 0.000000 0.000000 -9.192086 -32.156321 -119.843376 23.116353 -34.210273 7.206036 9.473784 -2.878672 3.113970 0.000000 0.000000 0.000000 -7.125000 0.000000 0.000000 -13.001209 26.762496 -5.897020 0.000000 0.000000 0.000000 -3.757248 -9.485623 48.362450 -17.419547 -27.403476 -4.280914 -0.904696 -45.678075 36.468657 0.000000 0.000000 0.000000 7.125000 0.000000 0.000000 39.387456 62.001847 -17.780527
5.046183 14.772802 -4.567944 -187.961846 98.710019 -164.588840 0.000000 0.000000 0.000000 -6.297577 -10.799109 -69.426684 12.547514 18.612627 67.713916 0.765300 -7.374279 -15.674545 0.000502 -0.141988 -0.390118 0.000000 0.000000 0.000000 0.164243 2.566446 -31.350376 -7.667234 -15.868973 51.354940 -1.938683 -14.204666 -34.600856 -1.925383 8.708863 -24.888886 -5.366789 1.401824 34.003237 -3.499420 0.101891 6.061035 -0.961207 0.450160 -10.569879 0.258231 6.461809 -33.764548 -12.790848 12.002773 14.927247 -2.482187 3.854230 11.212110 0.000000 0.000000 0.000000 -7.926061 -32.227152 -119.319798 25.203660 -36.411335 8.410486 6.944628 -2.917436 3.477272 0.000000 0.000000 0.000000 -7.125000 0.000000 0.000000 -14.844657 26.405845 -6.913872 0.000000 0.000000 0.000000 -3.524573 -9.862877 46.951781 -15.955941 -25.460826 -3.626936 -2.230736 -38.874613 37.851998 0.000000 0.000000 0.000000 7.125000 0.000000 0.000000 39.805971 63.414606 -19.294629
5.236002 14.882133 -4.708226 -191.782988 99.514051 -167.753093 0.000000 0.000000 0.000000 -6.110745 -10.888136 -68.715682 12.349574 18.534456 67.092604 0.872697 -6.932276 -16.680164 0.001533 -0.250349 -0.687784 0.000000 0.000000 0.000000 1.122941 2.358498 -31.285010 -7.031480 -15.356746 48.990521 -1.835395 -13.804450 -33.697779 -1.901309 8.657310 -24.729052 -5.559010 1.656383 32.719281 -3.439484 0.414926 5.961297 -0.885617 0.573396 -10.182035 -0.033307 6.130379 -34.082871 -11.628400 11.310430 14.489737 -2.150082 3.688769 10.920793 0.000000 0.000000 0.000000 -5.871246 -32.596259 -117.664284 27.845030 -38.962083 10.030407 5.720340 -4.117081 4.016572 0.000000 0.000000 0.000000 -7.125000 0.000000 0.000000 -15.680745 25.880477 -7.533471 0.000000 0.000000 0.000000 -3.372700 -10.296717 46.332360 -15.263288 -24.511338 -3.334590 -5.400041 -30.210532 38.531474 0.000000 0.000000 0.000000 7.125000 0.000000 0.000000 37.574037 64.805052 -19.246632
5.406960 14.994620 -4.825469 -194.030327 100.454240 -169.467503 0.000000 0.000000 0.000000 -5.979349 -11.032962 -67.795191 12.082722 18.425154 66.250508 0.961855 -6.234071 -17.497303 0.001999 -0.286260 -0.786665 0.000000 0.000000 0.000000 1.955720 2.482491 -31.365262 -6.538381 -14.929292 47.103717 -1.697169 -13.501245 -32.643039 -1.863845 8.576145 -24.478288 -5.977530 2.030127 31.444114 -3.360617 0.801697 5.855795 -0.704531 0.733505 -10.045907 -0.230831 5.793226 -33.930871 -10.836517 10.659050 13.969978 -1.962209 3.520822 10.579494 0.000000 0.000000 0.000000 -3.435892 -33.054478 -116.101563 30.931177 -41.666421 12.028307 4.813259 -5.751639 4.816284 0.000000 0.000000 0.000000 -7.125000 0.000000 0.000000 -16.243188 25.107986 -8.130754 0.000000 0.000000 0.000000 -3.664756 -10.223007 46.670442 -15.404844 -24.706264 -3.393832 -10.023957 -21.722270 38.612042 0.000000 0.000000 0.000000 7.125000 0.000000 0.000000 32.911963 66.187996 -17.625416
5.556535 15.112900 -4.921420 -194.892503 101.496516 -169.800821 0.000000 0.000000 0.000000 -6.056423 -11.031745 -66.859106 11.742738 18.279781 65.171084 1.043261 -5.536648 -18.252010 0.001610 -0.256265 -0.704126 0.000000 0.000000 0.000000 2.636035 2.793830 -31.689058 -6.102341 -14.526776 45.390933 -1.511798 -13.405067 -31.438214 -1.649227 8.093499 -22.998437 -6.730514 2.455582 29.932667 -3.162408 1.206151 5.899473 -0.191831 0.907473 -9.846629 -0.497448 5.486791 -33.476460 -10.397694 10.135947 13.089435 -1.867498 3.395048 10.103165 0.000000 0.000000 0.000000 -0.933571 -33.642135 -113.992265 34.295181 -44.301842 14.318937 8.051140 -7.428053 5.721664 0.000000 0.000000 0.000000 -7.125000 0.000000 0.000000 -13.784161 24.206462 -7.119733 0.000000 0.000000 0.000000 -4.582975 -10.011704 48.017565 -16.523149 -26.224781 -3.874329 -16.068636 -14.102423 38.369688 0.000000 0.000000 0.000000 7.125000 0.000000 0.000000 25.966980 67.779190 -14.602340
5.765728 15.254215 -5.009557 -195.721740 103.395746 -171.205696 0.000000 0.000000 0.000000 -6.557547 -10.106627 -64.280522 11.359010 18.105957 63.941697 1.178839 -4.904678 -19.483825 0.005753 -0.486325 -1.336252 0.000000 0.000000 0.000000 3.357511 3.561577 -30.741948 -5.724923 -14.155952 43.866579 -1.492749 -12.704455 -30.734252 -1.389179 7.455291 -21.072309 -7.502534 3.118932 28.901146 -3.144671 1.913360 6.000768 0.049568 1.235298 -9.269258 -0.808586 5.255141 -33.508004 -9.661109 9.747993 12.779793 -1.630858 3.309260 9.901411 0.000000 0.000000 0.000000 2.007243 -33.139088 -109.409228 38.271762 -46.997890 17.168582 11.621323 -9.156662 6.472211 0.000000 0.000000 0.000000 -7.125000 0.000000 0.000000 -11.120295 23.389216 -5.892619 0.000000 0.000000 0.000000 -5.534740 -9.823397 49.683483 -18.219359 -28.432899 -4.655396 -19.821163 -10.042697 36.775074 0.000000 0.000000 0.000000 7.125000 0.000000 0.000000 19.554719 67.482655 -10.755866
5.891374 15.357443 -5.062153 -195.883139 103.752105 -171.034639 0.000000 0.000000 0.000000 -6.796682 -10.296087 -63.225415 10.948079 17.909047 62.612247 1.219832 -4.504652 -19.872810 0.004606 -0.428494 -1.177452 0.000000 0.000000 0.000000 4.186372 3.445890 -31.263362 -5.492175 -13.917417 42.907815 -1.353380 -12.525706 -29.678277 -1.282584 7.175458 -20.236695 -7.684010 3.036213 27.426238 -3.192254 1.862972 5.801758 0.173555 1.197658 -8.765939 -0.673608 5.054678 -33.055381 -9.242571 9.248535 12.313505 -1.600266 3.176097 9.612550 0.000000 0.000000 0.000000 5.719992 -32.964198 -105.115520 41.416311 -48.881859 19.501268 14.723442 -11.067702 7.859805 0.000000 0.000000 0.000000 -7.125000 0.000000 0.000000 -8.790661 21.889906 -4.935392 0.000000 0.000000 0.000000 -6.066349 -9.484543 50.764581 -20.076040 -30.727319 -5.573250 -21.666804 -9.098889 34.157641 0.000000 0.000000 0.000000 7.125000 0.000000 0.000000 14.609336 65.555757 -7.336219
6.023129 15.461717 -5.098809 -195.259311 104.244078 -170.399679 0.000000 0.000000 0.000000 -7.340092 -10.318952 -61.641203 10.488919 17.675679 61.110157 1.270487 -4.189472 -20.336260 0.000605 -0.164867 -0.453082 0.000000 0.000000 0.000000 4.834861 3.557756 -31.610093 -5.348094 -13.765434 42.305802 -1.311117 -12.416103 -29.302748 -1.062744 6.553919 -18.400439 -8.158493 3.044920 26.321658 -3.151874 1.809863 5.458905 0.538786 1.173035 -8.608978 -0.649055 5.124100 -32.562845 -8.655653 9.166856 12.346660 -1.417416 3.218176 9.503711 0.000000 0.000000 0.000000 9.125017 -31.937707 -100.150908 43.508300 -50.016324 21.089449 18.723388 -12.405464 8.753399 0.000000 0.000000 0.000000 -7.125000 0.000000 0.000000 -5.883560 20.767191 -3.433010 0.000000 0.000000 0.000000 -6.570398 -9.005877 51.245962 -21.818716 -32.771394 -6.487513 -21.162932 -11.555846 30.309548 0.000000 0.000000 0.000000 7.125000 0.000000 0.000000 12.138136 61.656357 -4.960744
